<svg width="589" height="275" viewBox="0 0 589 275" fill="none" xmlns="http://www.w3.org/2000/svg">
<g clip-path="url(#clip0_2061_1957)">
<g clip-path="url(#clip1_2061_1957)">
<path d="M95.7633 122.903V197.352C95.7633 199.346 95.7633 201.992 91.5732 203.539C83.8438 206.388 64.6423 208.382 42.5931 208.382C13.4654 208.382 0 202.44 0 172.847C0 146.349 13.9129 138.859 39.0539 138.859L74.5685 138.656V126.689C74.5685 113.012 66.6356 106.825 45.8883 106.825H12.8145C10.1703 106.825 9.51938 106.173 9.51938 103.528V94.4913C9.51938 91.8455 10.4144 91.3977 12.6111 90.95C25.6291 88.7519 36.6537 88.3042 45.929 88.3042C80.3452 88.3042 95.804 98.8874 95.804 122.944M39.542 155.874C27.4191 155.874 20.9914 159.863 20.9914 172.44C20.9914 187.013 28.2734 190.31 46.3765 190.31C53.2109 190.31 66.2288 189.862 74.6091 187.664V155.874H39.542Z" fill="#382C74"/>
<path d="M571.001 122.903V197.351C571.001 199.346 571.001 201.991 566.811 203.538C559.082 206.387 539.88 208.382 517.831 208.382C488.703 208.382 475.238 202.439 475.238 172.847C475.238 146.348 489.151 138.859 514.292 138.859L549.806 138.655V126.688C549.806 113.011 541.874 106.824 521.126 106.824H488.012C485.368 106.824 484.717 106.173 484.717 103.527V94.4908C484.717 91.845 485.612 91.3973 487.809 90.9495C500.826 88.7515 511.851 88.3037 521.126 88.3037C555.543 88.3037 571.001 98.8869 571.001 122.943M514.739 155.873C502.616 155.873 496.189 159.862 496.189 172.44C496.189 187.012 503.471 190.309 521.574 190.309C528.408 190.309 541.426 189.861 549.806 187.663V155.873H514.739Z" fill="#382C74"/>
<path d="M212.967 148.222C212.967 197.433 204.139 208.424 162.441 208.424C151.416 208.424 142.792 208.22 133.313 207.08V247.703C133.313 249.901 132.215 251 130.018 251H115.454C113.257 251 112.159 249.901 112.159 247.703V95.7535C112.159 93.3113 113.502 92.4565 115.698 92.0087C135.103 88.9152 144.826 88.2639 161.383 88.2639C204.18 88.2639 213.008 99.4577 213.008 148.222M133.354 106.784V188.071C142.182 189.17 152.555 189.822 161.139 189.822C188.517 189.822 191.813 182.82 191.813 148.384C191.813 113.948 188.721 106.744 161.587 106.744H133.354V106.784Z" fill="#382C74"/>
<path d="M247.951 43H233.347C231.527 43 230.052 44.4761 230.052 46.2971V203.986C230.052 205.807 231.527 207.283 233.347 207.283H247.951C249.771 207.283 251.246 205.807 251.246 203.986V46.2971C251.246 44.4761 249.771 43 247.951 43Z" fill="#382C74"/>
<path d="M463.358 90.2593C465.352 90.4629 466.45 91.8061 466.45 94.0042V103.488C466.45 105.686 465.352 106.785 463.155 106.785H429.837C403.15 106.785 399.814 113.99 399.814 148.426C399.814 182.862 403.11 189.863 429.837 189.863H463.155C465.352 189.863 466.45 190.962 466.45 193.16V202.644C466.45 204.843 465.352 206.186 463.358 206.389C452.09 207.936 439.072 208.384 429.837 208.384C387.04 208.384 378.66 197.638 378.66 148.426C378.66 99.2143 387.04 88.2241 429.837 88.2241C439.112 88.2241 452.13 88.6719 463.358 90.2186" fill="#382C74"/>
<path d="M368.938 89.2815H351.934C350.469 89.2815 349.167 90.2584 348.761 91.6831L321.219 189.252H317.436L287.413 91.6016C287.007 90.2177 285.705 89.2815 284.24 89.2815H267.805C265.975 89.2815 264.673 91.0725 265.202 92.8228L301.001 204.964C301.448 206.348 302.71 207.284 304.133 207.284H315.687L303.523 247.5C302.994 249.25 304.296 251 306.127 251H321.179C322.643 251 323.945 250.064 324.352 248.64L371.42 92.7821C371.949 91.0318 370.647 89.2815 368.816 89.2815" fill="#382C74"/>
</g>
</g>
<defs>
<clipPath id="clip0_2061_1957">
<rect width="589" height="275" fill="white"/>
</clipPath>
<clipPath id="clip1_2061_1957">
<rect width="571" height="260" fill="white" transform="translate(0 43)"/>
</clipPath>
</defs>
</svg>
